<svg width="287" height="280" viewBox="0 0 287 280" fill="none" xmlns="http://www.w3.org/2000/svg">
<ellipse cx="143.5" cy="140" rx="143.5" ry="140" fill="#439E47"/>
<path d="M104.188 45.5591C101.234 45.5591 98.4078 46.7403 96.2562 48.8244C94.1469 50.9127 92.9656 53.7688 92.9656 56.7641L93.0078 69.5385V74.4828C90.6875 75.1578 88.8734 77.3094 88.8734 79.8828C88.8734 83.0469 91.4891 85.5781 94.6109 85.5781H101.572V89.2063L91.3203 96.2516C84.0219 101.314 79.7188 109.498 79.7188 118.273V207.289C79.7188 222.266 91.9531 234.458 106.93 234.458H179.113C194.089 234.458 206.281 222.266 206.281 207.289V118.273C206.281 109.498 201.978 101.314 194.68 96.2516L184.47 89.2063V85.5781H191.431C194.511 85.5781 197.042 83.0469 197.042 79.8828C197.042 77.3094 195.312 75.1578 192.992 74.4828V56.7641C192.992 53.7688 191.811 50.9127 189.702 48.8244C187.55 46.7403 184.723 45.5591 181.77 45.5591H104.188ZM104.188 53.0896H181.812C182.741 53.0896 183.711 53.4988 184.386 54.178C184.934 54.7264 185.272 55.4014 185.356 56.1735L138.064 61.2992C135.955 61.527 134.478 63.3875 134.689 65.4758C134.9 67.5767 136.798 69.0617 138.823 68.8424L185.398 63.7503V74.2297H100.559V72.9894L119.122 70.9813C121.231 70.7197 122.708 68.8846 122.497 66.7878C122.286 64.7038 120.388 63.2061 118.363 63.4297L100.559 65.383V56.7641C100.559 55.7642 100.981 54.8614 101.614 54.178C102.289 53.4988 103.302 53.0896 104.188 53.0896ZM110.98 85.5781H174.978V94.1844L189.364 104.056C194.005 107.263 196.831 112.62 196.831 118.273V207.289C196.831 217.245 188.858 224.966 179.113 224.966H106.93C97.1422 224.966 89.2109 217.245 89.2109 207.289V118.273C89.2109 112.62 91.9953 107.263 96.6359 104.056L110.98 94.1844V85.5781ZM156.922 94.0578V104.098L177.847 118.569C178.353 118.948 178.691 119.497 178.691 120.172V205.433C178.691 209.525 177.425 213.153 175.105 216.359C180.547 215.853 186.495 210.875 186.495 205.433V120.13C186.495 116.628 184.808 113.295 181.939 111.313L164.769 99.4578V94.0578H156.922Z" fill="white"/>
</svg>
